<svg version="1.1" xmlns="http://www.w3.org/2000/svg" xmlns:xlink="http://www.w3.org/1999/xlink" width="312.7654" height="71.11281" viewBox="0,0,312.7654,71.11281"><defs><linearGradient x1="269.26604" y1="147.00564" x2="269.26604" y2="213.15664" gradientUnits="userSpaceOnUse" id="color-1"><stop offset="0" stop-color="#f99714"/><stop offset="1" stop-color="#f86115"/></linearGradient></defs><g transform="translate(-45.50976,-144.544)"><g data-paper-data="{&quot;isPaintingLayer&quot;:true}" fill-rule="nonzero" stroke-linecap="butt" stroke-linejoin="miter" stroke-miterlimit="10" stroke-dasharray="" stroke-dashoffset="0" style="mix-blend-mode: normal"><path d="M354.96504,186.01364c-2.52908,12.0582 -35.8742,16.8389 -43.6962,18.9061c-42.491,11.2296 -128.002,7.71676 -128.002,7.71676c0,0 57.068,-5.74644 71.2538,-31.7552c7.96717,-14.6073 -14.0533,-33.8373 -14.0533,-33.8373c0,0 27.127,-0.85894 55.1188,5.5619c35.9817,8.25357 62.8387,16.9111 59.3787,33.4078z" fill="#ffffff" stroke="#ffffff" stroke-width="5"/><path d="M354.96504,186.01364c-2.52908,12.0582 -35.8742,16.8389 -43.6962,18.9061c-42.491,11.2296 -128.002,7.71676 -128.002,7.71676c0,0 57.068,-5.74644 71.2538,-31.7552c7.96717,-14.6073 -14.0533,-33.8373 -14.0533,-33.8373c0,0 27.127,-0.85894 55.1188,5.5619c35.9817,8.25357 62.8387,16.9111 59.3787,33.4078z" fill="url(#color-1)" stroke="#ffffff" stroke-width="0"/><text transform="translate(46.50976,178.89082) scale(0.5,0.5)" font-size="40" xml:space="preserve" fill="#000000" fill-rule="nonzero" stroke="#000000" stroke-width="4" stroke-linecap="butt" stroke-linejoin="miter" stroke-miterlimit="10" stroke-dasharray="" stroke-dashoffset="0" font-family="Sans Serif" font-weight="normal" text-anchor="start" style="mix-blend-mode: normal"><tspan x="0" dy="0">THECARTOONDUDE</tspan></text><text transform="translate(264.8727,180.42859) scale(0.5,0.5)" font-size="40" xml:space="preserve" fill="#000000" fill-rule="nonzero" stroke="none" stroke-width="1" stroke-linecap="butt" stroke-linejoin="miter" stroke-miterlimit="10" stroke-dasharray="" stroke-dashoffset="0" font-family="Sans Serif" font-weight="normal" text-anchor="start" style="mix-blend-mode: normal"><tspan x="0" dy="0">Player</tspan></text></g></g></svg>